<?xml version="1.0" standalone="no"?>
<!DOCTYPE svg PUBLIC "-//W3C//DTD SVG 20010904//EN"
 "http://www.w3.org/TR/2001/REC-SVG-20010904/DTD/svg10.dtd">
<svg version="1.0" xmlns="http://www.w3.org/2000/svg"
 width="198.000000pt" height="188.000000pt" viewBox="0 0 198.000000 188.000000"
 preserveAspectRatio="xMidYMid meet">

<g transform="translate(0.000000,188.000000) scale(0.100000,-0.100000)"
fill="#000000" stroke="none">
<path d="M0 940 l0 -940 990 0 990 0 0 940 0 940 -990 0 -990 0 0 -940z m1087
479 c21 -18 43 -64 43 -91 0 -30 -33 -84 -61 -98 -12 -7 -36 -12 -55 -13 -99
-3 -150 111 -84 187 41 46 111 53 157 15z m23 -614 l0 -325 -100 0 -100 0 0
318 c0 175 3 322 7 325 3 4 48 7 100 7 l93 0 0 -325z"/>
</g>
</svg>
